<svg version="1.1" xmlns="http://www.w3.org/2000/svg" viewBox="-264.1919967651367 -1718.4001037597657 7384.178916124611 2893.056188964844"><desc>Created with Snap</desc><defs></defs><g><rect x="-264.1919967651367" y="-1718.4001037597657" width="7384.178916124611" height="2893.056188964844" fill="transparent" style=""></rect><g transform="matrix(43.3765,0,0,43.3765,2824.1409,-2456.965)"><path d="M54.042,24.109l37.912,21.888v8.756  L54.042,76.641v-8.755l30.331-17.511l-30.331-17.51V24.109z" fill="#247ba0" style=""></path><path d="M54.042,41.62l15.166,8.755l-15.166,8.755  V41.62z" fill="#247ba0" style=""></path><polygon points="46.459,24.109 8.547,45.997 8.547,54.752 38.876,37.243 38.876,72.263 46.459,76.641 " fill="#247ba0" style=""></polygon><polygon points="31.294,50.375 16.129,59.13 31.294,67.885 " fill="#247ba0" style=""></polygon><desc>Created with Snap</desc><defs></defs></g><g><g transform="matrix(1.024,0,0,-1.024,0,0)"><path d="M220 338Q163 338 129 297Q95 256 95 186Q95 116 128 76Q162 36 220 36Q304 36 354 131L354 278Q328 303 291 320Q255 338 220 338ZM354 331L354 703L288 703Q278 703 271 709Q265 716 265 726Q265 736 271 743Q278 750 288 750L381 750Q392 750 400 743Q408 736 408 726L408 66Q408 47 428 47L474 47Q484 47 490 40Q497 34 497 24Q497 14 490 7Q484 0 474 0L421 0Q356 0 358 71Q336 37 300 13Q265 -10 220 -10Q131 -10 86 47Q42 104 42 188Q42 272 88 328Q135 384 216 384Q297 384 354 331ZM852 220Q849 274 820 306Q792 338 738 338Q685 338 649 305Q613 273 604 220L852 220ZM854 96Q861 108 870 108Q879 108 888 103Q897 99 900 89Q904 80 899 72Q848 -10 737 -10Q649 -10 598 46Q548 103 548 189Q548 275 600 329Q652 384 737 384Q822 384 863 333Q905 282 905 197Q905 174 879 174L602 173Q606 111 642 73Q679 36 737 36Q815 36 854 96ZM1161 66L1301 370Q1308 385 1317 385Q1341 385 1350 367Q1352 362 1352 357Q1352 353 1350 349L1186 6Q1178 -10 1160 -10Q1143 -10 1135 6L970 349Q968 353 968 358Q968 373 986 381Q994 385 1003 385Q1013 385 1020 370L1161 66ZM1403 -226Q1392 -229 1384 -229Q1376 -229 1369 -223Q1363 -217 1363 -207Q1363 -189 1386 -183Q1438 -167 1458 -124Q1478 -80 1478 -6L1478 327L1417 327Q1407 327 1400 333Q1394 340 1394 350Q1394 360 1400 367Q1407 374 1417 374L1478 374L1478 600Q1478 687 1514 723Q1551 760 1627 760Q1703 760 1757 727Q1769 720 1769 709L1769 623Q1769 613 1761 606Q1753 600 1742 600Q1731 600 1723 606Q1715 613 1715 623L1715 698Q1680 714 1628 714Q1576 714 1553 687Q1531 661 1531 599L1531 374L1705 374Q1715 374 1721 367Q1728 360 1728 350Q1728 340 1721 333Q1715 327 1705 327L1531 327L1531 -6Q1531 -95 1504 -148Q1477 -201 1403 -226ZM1891 47L1930 47Q1940 47 1946 40Q1953 33 1953 23Q1953 13 1946 6Q1940 0 1930 0L1891 0Q1810 0 1810 65L1810 703L1744 703Q1734 703 1727 709Q1721 716 1721 726Q1721 736 1727 743Q1734 750 1744 750L1837 750Q1848 750 1856 743Q1864 736 1864 726L1864 66Q1864 47 1891 47ZM2278 136L2278 155Q2212 173 2165 173Q2119 173 2089 155Q2060 137 2060 104Q2060 72 2079 54Q2098 36 2131 36Q2223 36 2278 136ZM2358 47L2397 47Q2407 47 2413 40Q2420 33 2420 23Q2420 13 2413 6Q2407 0 2397 0L2353 0Q2317 0 2297 16Q2278 32 2278 61Q2278 66 2279 72Q2226 -10 2125 -10Q2069 -10 2037 20Q2006 50 2006 103Q2006 157 2048 187Q2091 218 2154 218Q2218 218 2278 197L2278 266Q2278 314 2243 328Q2216 338 2168 338Q2121 338 2081 322L2081 259Q2081 249 2073 242Q2065 236 2054 236Q2043 236 2035 242Q2027 249 2027 259L2027 335Q2027 348 2040 355Q2089 384 2170 384Q2251 384 2291 357Q2331 331 2331 266L2331 66Q2331 47 2358 47ZM2629 66L2769 370Q2776 385 2785 385Q2809 385 2818 367Q2820 362 2820 357Q2820 353 2818 349L2654 6Q2646 -10 2628 -10Q2611 -10 2603 6L2438 349Q2436 353 2436 358Q2436 373 2454 381Q2462 385 2471 385Q2481 385 2488 370L2629 66Z" fill="#247ba0" style=""></path></g></g></g></svg>